<svg width="320" height="241" viewBox="0 0 320 241" fill="none" xmlns="http://www.w3.org/2000/svg">
<g clip-path="url(#clip0_1438_67411)">
<g clip-path="url(#clip1_1438_67411)">
<path d="M211.684 25.2738C211.65 25.1156 211.613 24.9573 211.576 24.8022C210.13 18.8548 205.863 13.9809 201 10.2548C189.687 1.58968 174.001 -1.33283 159.895 0.621713C153.189 1.55245 146.245 3.33015 140.424 6.74906C136.477 9.06659 133.113 12.2125 130.73 16.0409C123.382 27.8457 127.199 43.4449 139.136 50.9218C145.866 55.138 154.604 56.2332 162.446 56.7854C171.162 57.3997 180.009 56.7606 188.536 54.9115C195.93 53.3075 202.695 50.202 207.321 44.2329C211.448 38.9091 213.121 31.8324 211.681 25.2707L211.684 25.2738Z" fill="#FCF8F4"/>
<path d="M180.436 16.0002C177.109 14.0084 173.817 15.2059 171.04 17.1822C170.348 17.6755 169.426 17.6538 168.719 17.1822C166.621 15.7768 164.213 14.874 161.548 15.3549C158.184 15.9598 155.81 18.7365 155.078 21.8048C153.824 27.0635 156.893 31.7482 160.601 35.3936C162.538 37.2954 164.688 38.98 166.842 40.6522C169.398 42.6378 170.897 42.5882 173.271 40.2955C177.234 36.4639 182.164 32.1888 183.849 26.896C185.084 23.0117 184.29 18.3115 180.436 16.0033V16.0002Z" fill="#ED1A60"/>
<path d="M251.175 153.07C251.175 172.975 244.488 191.317 233.234 205.973C230.252 209.86 226.947 213.49 223.36 216.819C214.33 225.199 203.516 231.689 191.551 235.648C182.947 238.499 173.746 240.041 164.186 240.041C141.335 240.041 120.539 231.23 105.018 216.819C87.9046 200.938 77.1992 178.256 77.1992 153.07C77.1992 105.035 116.145 66.0957 164.186 66.0957C212.227 66.0957 251.175 105.035 251.175 153.07Z" fill="#359BFF"/>
<path d="M198.873 121.289C198.796 111.147 194.3 101.725 184.587 96.1153C179.759 93.3262 173.966 91.8774 168.38 92.0511C162.503 92.2341 157.172 95.228 151.354 95.7927C145.024 96.41 139.395 95.5786 134.095 99.8817C126.968 105.671 123.787 113.61 126.915 121.49C127.787 123.687 132.134 127.723 133.298 129.777C134.706 132.268 135.122 134.232 135.107 137.086C135.082 141.917 142.045 147.21 144.071 151.596C151.484 167.633 147.246 174.396 166.798 162.793C173.497 158.816 176.339 173.497 180.581 167.124C188.565 155.133 199.022 141.123 198.873 121.285V121.289Z" fill="#FCF8F4"/>
<path d="M184.307 181.706C184.208 181.346 184.096 180.992 183.975 180.651C184.186 180.496 184.366 180.307 184.497 180.096C184.661 179.882 184.779 179.63 184.847 179.357C185.307 178.563 185.288 177.518 184.323 176.817C184.106 176.658 183.889 176.503 183.674 176.345C183.51 176.224 183.342 176.14 183.181 176.072C182.306 175.548 181.406 175.116 180.404 174.772C178.216 174.018 176.761 176.882 178.176 178.138C177.608 178.821 177.341 179.692 177.245 180.633C177.022 181.16 176.87 181.777 176.835 182.5C176.783 183.614 177.121 185.472 177.816 187.092C177.828 187.182 177.844 187.275 177.856 187.368C177.794 187.613 177.776 187.886 177.825 188.19C178.179 190.452 178.613 192.689 179.191 194.907C179.563 196.337 179.796 198.41 181.018 199.421C183.6 201.555 185.276 198.316 185.853 196.269C186.799 192.921 186.79 189.363 185.906 186.006C185.558 184.684 185.027 183.146 184.311 181.706H184.307Z" fill="#1A2154"/>
<path d="M158.897 180.288C158.655 179.351 157.526 178.888 156.62 179.037C156.533 179.037 156.443 179.037 156.356 179.056C152.316 179.934 153.815 185.186 154.563 188.034C155.025 189.797 157.644 189.601 158.311 188.134C159.462 185.599 159.589 182.959 158.901 180.288H158.897Z" fill="#1A2154"/>
<path d="M233.235 205.973C230.253 209.86 226.948 213.49 223.361 216.819C214.332 225.199 203.518 231.689 191.552 235.648C190.097 230.085 188.84 224.466 187.922 218.789C187.376 215.41 183.115 198.496 190.752 198.617C201.736 198.791 219.908 198.629 233.235 205.973Z" fill="#23276C"/>
<path d="M191.512 209.621C185.384 205.374 184.506 197.081 183.454 190.287C182.089 181.479 181.207 172.612 180.757 163.711C180.652 161.62 178.368 161.329 177.055 162.359C176.649 162.051 176.14 161.856 175.526 161.868C168.311 162.017 160.914 162.343 154.292 165.306C153.342 165.222 152.352 165.647 151.937 166.497C151.853 166.544 151.769 166.584 151.685 166.634C149.538 167.878 150.484 171.086 152.377 171.194C153.885 179.543 155.406 187.985 156.085 196.42C156.718 204.248 155.325 213.741 147.828 217.713C147.496 217.815 147.164 217.93 146.832 218.069C146.531 218.193 146.298 218.361 146.1 218.547C143.931 219.903 149.2 222.233 149.609 222.031C152.958 221.147 171.787 223.095 188.72 213.338C191.308 211.846 193.973 211.328 191.509 209.621H191.512Z" fill="#EDBFA8"/>
<path d="M152.379 171.194C153.124 175.314 154.362 182.751 155.008 186.905C164.68 190.541 177.846 182.729 181.361 172.671C181.11 169.69 180.905 166.702 180.756 163.711C180.651 161.62 178.367 161.329 177.055 162.359C176.648 162.051 176.139 161.856 175.525 161.868C168.31 162.017 160.913 162.343 154.291 165.306C153.341 165.222 152.351 165.647 151.936 166.497C151.852 166.544 151.768 166.584 151.684 166.634C149.537 167.878 150.483 171.086 152.376 171.194H152.379Z" fill="#CF9F90"/>
<path d="M223.362 216.819C207.838 231.227 187.044 240.041 164.188 240.041C141.331 240.041 120.541 231.23 105.02 216.819C108.88 210.279 113.64 204.952 119.833 202.883C140.167 196.082 170.114 198.819 190.678 202.886C203.518 205.424 214.537 210.186 223.362 216.819Z" fill="#23276C"/>
<path d="M197.075 138.759C196.976 136.705 196.34 135.011 194.357 135.774C192.514 136.485 189.427 141.272 190.221 143.289C190.432 143.822 191.049 144.204 191.028 144.778C190.994 145.646 189.622 145.814 189.315 146.627C189.098 147.201 189.51 147.815 189.548 148.429C189.563 148.699 189.507 148.969 189.451 149.233C189.237 150.232 188.784 151.417 188.834 152.441C188.865 153.086 189.752 154.116 189.712 154.56C190.01 154.895 190.509 155.134 190.966 155.016C194.447 154.107 195.94 146.707 196.598 143.791C196.781 142.975 197.169 140.707 197.072 138.762L197.075 138.759Z" fill="#EDBFA8"/>
<path d="M144.838 145.959C144.413 145.019 143.963 144.172 143.609 143.514C142.535 141.523 141.331 135.6 138.085 136.45C134.719 137.334 135.547 143.037 136.261 145.332C137.006 147.727 138.104 150.392 139.749 152.319C140.841 153.597 143.196 155.4 144.862 154.041C147.097 152.22 146.076 148.699 144.838 145.959Z" fill="#EDBFA8"/>
<path d="M192.571 123.802C191.879 119.353 190.477 115.094 187.876 111.346C179.132 98.7375 161.377 97.4624 149.924 106.816C137.912 116.629 139.311 132.498 140.891 146.118C141.663 152.77 146.606 167.168 149.837 171.698C153.892 177.388 160.269 177.49 166.748 177.884C185.36 179.02 191.659 156.151 192.795 140.571C193.195 135.089 193.425 129.3 192.571 123.802Z" fill="#EDBFA8"/>
<path d="M194.418 200.789C193.226 196.439 191.96 192.105 190.319 187.901C189.5 185.804 188.907 183.114 187.871 181.113C187.114 179.655 185.956 178.337 184.73 177.195C184.327 176.82 182.139 177.096 183.021 179.531C184.398 183.335 185.246 187.622 183.418 191.004C181.432 194.677 176.759 195.205 173.013 195.453C168.564 195.744 164.669 195.639 160.626 193.554C158.706 192.564 156.394 191.386 155.441 189.329C154.42 187.129 153.961 184.023 154.181 181.697C154.296 180.49 154.129 179.879 152.915 179.879C150.42 179.875 148.869 183.589 148.193 185.509C147.11 188.581 147.538 191.99 147.479 195.183C147.38 200.469 147.597 205.756 148.09 211.021C148.115 211.294 148.193 211.527 148.292 211.731C147.954 212.659 148.189 213.807 149.353 214.316C155.72 217.092 162.612 217.459 169.464 217.065C173.321 216.844 177.156 216.391 181.01 216.134C183.219 215.988 185.432 215.892 187.644 215.966C189.103 216.016 190.66 216.264 192.112 215.985C198.837 214.685 195.554 204.918 194.421 200.795L194.418 200.789Z" fill="#23276C"/>
<path d="M185.622 126.557C183.307 125.086 179.941 124.366 177.297 124.391C176.251 124.401 175.224 124.624 174.526 125.154C173.828 125.685 173.508 126.563 173.884 127.401C174.777 129.399 177.731 129.532 179.751 129.606C180.875 129.647 182.004 129.613 183.143 129.777C184.344 129.951 185.542 130.382 186.392 129.634C187.686 128.493 186.947 127.401 185.622 126.56V126.557Z" fill="#FCF8F4"/>
<path d="M146.376 127.611C148.706 126.172 152.082 125.483 154.72 125.53C155.766 125.548 156.787 125.775 157.479 126.305C158.171 126.836 158.475 127.704 158.09 128.533C157.168 130.506 154.217 130.614 152.2 130.673C151.077 130.708 149.951 130.664 148.809 130.816C147.608 130.977 146.404 131.399 145.566 130.649C144.291 129.507 145.045 128.433 146.379 127.611H146.376Z" fill="#FCF8F4"/>
<path d="M165.904 145.202C162.656 143.325 164.44 139.36 166.239 137.164C166.711 136.586 165.876 135.78 165.402 136.357C163.099 139.168 161.374 143.927 165.343 146.22C165.991 146.595 166.553 145.577 165.904 145.202Z" fill="#BF8782"/>
<path d="M180.738 136.655C180.67 138.278 179.823 139.559 178.842 139.519C177.865 139.478 177.126 138.129 177.192 136.506C177.26 134.884 178.107 133.602 179.087 133.643C180.065 133.683 180.803 135.032 180.738 136.655Z" fill="#4B3E3A"/>
<path d="M153.498 137.167C153.43 138.789 152.583 140.071 151.602 140.03C150.625 139.99 149.886 138.64 149.951 137.018C150.02 135.395 150.867 134.114 151.847 134.154C152.825 134.195 153.563 135.544 153.498 137.167Z" fill="#4B3E3A"/>
<path d="M196.083 115.404C195.395 111.907 194.662 106.624 191.317 104.505C190.585 104.04 189.527 103.968 188.912 104.576C188.795 104.691 188.689 104.831 188.531 104.877C188.258 104.955 188.009 104.716 187.826 104.502C183.414 99.2959 178.083 95.4085 170.881 95.8335C168.327 95.9949 165.879 96.7146 163.524 97.6733C160.3 98.9887 157.162 101.452 153.572 101.409C147.462 101.334 141.697 99.5472 135.665 101.623C131.342 103.112 127.389 106.289 126.179 110.859C125.006 115.295 125.918 121.056 128.72 124.751C131.662 128.63 136.453 129.154 140.72 127.221C146.172 124.755 149.29 118.934 155.04 117.008C164.042 113.989 176.28 120.017 185.524 117.566C186.827 117.219 188.149 118.056 188.363 119.39C188.86 122.48 190.067 126.979 190.231 127.646C190.448 128.521 190.7 129.43 191.302 130.103C192.552 131.502 194.243 130.807 195.122 129.461C197.713 125.496 196.946 119.763 196.087 115.404H196.083Z" fill="#FCF8F4"/>
<path d="M191.19 148.956C191.174 148.956 191.159 148.953 191.14 148.95C188.748 148.658 187.457 153.191 186.988 154.91C186.16 157.953 185.347 160.789 183.131 163.159C180.879 165.57 176.348 168.405 173.32 165.694C171.421 163.994 171.939 161.642 168.91 161.44C167.25 161.332 163.992 160.944 163.027 162.604C162.211 164.009 162.239 164.928 160.849 166.131C159.229 167.537 157.78 167 155.93 166.209C150.23 163.764 146.376 156.808 143.494 151.466C141.415 147.619 141.089 153.87 141.542 155.53C142.11 157.618 142.947 159.601 143.664 161.636C145.417 166.628 151.136 181.672 157.128 183.043C162.189 184.2 167.644 185.326 172.637 184.827C179.597 184.129 181.679 178.935 184.708 174.229C188.45 168.412 190.185 161.462 191.537 154.758C191.776 153.57 192.003 152.378 192.223 151.187C192.409 150.175 192.397 149.114 191.19 148.956Z" fill="#FCF8F4"/>
<path d="M106.356 48.6689H36.6437C31.7099 48.6689 27.707 52.668 27.707 57.604V84.009C27.707 88.945 31.7099 92.944 36.6437 92.944H92.1782L106.855 106.992V92.9285C111.56 92.6679 115.292 88.7743 115.292 84.009V57.604C115.292 52.668 111.293 48.6689 106.356 48.6689Z" fill="#FCF8F4"/>
<path d="M45.5314 76.5943H98.6332C99.3189 76.5943 99.8775 76.039 99.8775 75.3503V74.4257C99.8775 73.7401 99.322 73.1816 98.6332 73.1816H45.5314C44.8456 73.1816 44.2871 73.737 44.2871 74.4257V75.3503C44.2871 76.0359 44.8456 76.5943 45.5314 76.5943Z" fill="#2646C2"/>
<path d="M98.798 62.4131H45.6994C45.0122 62.4131 44.4551 62.9701 44.4551 63.6572V64.5786C44.4551 65.2657 45.0122 65.8227 45.6994 65.8227H98.798C99.4852 65.8227 100.042 65.2657 100.042 64.5786V63.6572C100.042 62.9701 99.4852 62.4131 98.798 62.4131Z" fill="#2646C2"/>
<path d="M224.171 32.7412H292.025C292.17 32.7412 292.291 32.8622 292.291 33.008V131.641C292.291 131.787 292.17 131.908 292.025 131.908H224.171C224.025 131.908 223.904 131.787 223.904 131.641V33.008C223.904 32.8622 224.025 32.7412 224.171 32.7412Z" fill="#FCF8F4"/>
<path d="M248.923 51.9762C248.923 54.8118 246.624 57.1076 243.791 57.1076C240.958 57.1076 238.658 54.8118 238.658 51.9762C238.658 49.1405 240.958 46.8447 243.791 46.8447C246.624 46.8447 248.923 49.1436 248.923 51.9762Z" fill="#F5ECE4"/>
<path d="M276.532 54.6845H261.172C259.676 54.6845 258.463 53.4714 258.463 51.976C258.463 50.4806 259.676 49.2676 261.172 49.2676H276.532C278.027 49.2676 279.241 50.4806 279.241 51.976C279.241 53.4714 278.027 54.6845 276.532 54.6845Z" fill="#2041CA"/>
<path d="M270.952 74.162H261.172C259.676 74.162 258.463 72.9489 258.463 71.4536C258.463 69.9582 259.676 68.7451 261.172 68.7451H270.952C272.448 68.7451 273.661 69.9582 273.661 71.4536C273.661 72.9489 272.448 74.162 270.952 74.162Z" fill="#2041CA"/>
<path d="M266.262 93.4784H261.09C259.594 93.4784 258.381 92.2653 258.381 90.77C258.381 89.2746 259.594 88.0615 261.09 88.0615H266.262C267.758 88.0615 268.971 89.2746 268.971 90.77C268.971 92.2653 267.758 93.4784 266.262 93.4784Z" fill="#2041CA"/>
<path d="M270.79 112.148H261.01C259.514 112.148 258.301 110.935 258.301 109.44C258.301 107.944 259.514 106.731 261.01 106.731H270.79C272.286 106.731 273.499 107.944 273.499 109.44C273.499 110.935 272.286 112.148 270.79 112.148Z" fill="#2041CA"/>
<path d="M247.09 59.394H234.861C238.132 56.9182 237.583 52.9967 237.635 49.0287C237.648 48.0111 237.772 46.9687 237.71 45.9883H249.653C249.719 46.9252 249.604 47.9273 249.604 48.9077C249.61 52.8757 250.274 56.8686 247.087 59.394H247.09Z" fill="#FFB100"/>
<path d="M284.197 137.387H271.971C275.241 134.911 274.692 130.99 274.745 127.022C274.757 126.004 274.881 124.962 274.819 123.981H286.763C286.828 124.918 286.713 125.92 286.713 126.901C286.722 130.869 287.383 134.862 284.197 137.387Z" fill="#FFB100"/>
<path d="M250.783 70.7898C250.783 75.2418 247.175 78.85 242.722 78.85C238.269 78.85 234.66 75.2387 234.66 70.7898C234.66 66.3409 238.272 62.7266 242.722 62.7266C247.171 62.7266 250.783 66.3378 250.783 70.7898Z" fill="#0070F1"/>
<path d="M251.027 109.055C251.027 113.507 247.415 117.115 242.962 117.115C238.509 117.115 234.9 113.507 234.9 109.055C234.9 104.603 238.512 100.995 242.962 100.995C247.412 100.995 251.027 104.606 251.027 109.055Z" fill="#0070F1"/>
<path d="M250.863 90.1051C250.863 94.5571 247.251 98.1653 242.801 98.1653C238.351 98.1653 234.736 94.554 234.736 90.1051C234.736 85.6562 238.348 82.0449 242.801 82.0449C247.254 82.0449 250.863 85.6531 250.863 90.1051Z" fill="#E4CDBD"/>
<path d="M242.119 73.7863C241.986 73.7863 241.852 73.7398 241.747 73.6436L238.932 71.1368C238.7 70.9321 238.681 70.5753 238.886 70.3457C239.091 70.113 239.447 70.0944 239.677 70.2992L242.073 72.4368L246.203 67.8358C246.411 67.6062 246.764 67.5876 246.994 67.7924C247.224 68.0002 247.242 68.3539 247.037 68.5835L242.535 73.6002C242.423 73.7243 242.271 73.7863 242.119 73.7863Z" fill="white"/>
<path d="M242.119 112.123C241.986 112.123 241.852 112.077 241.747 111.981L238.932 109.474C238.7 109.269 238.681 108.912 238.886 108.683C239.091 108.45 239.447 108.431 239.677 108.636L242.073 110.774L246.203 106.173C246.411 105.943 246.764 105.925 246.994 106.129C247.224 106.337 247.242 106.691 247.037 106.92L242.535 111.937C242.423 112.061 242.271 112.123 242.119 112.123Z" fill="white"/>
<path d="M178.272 159.641C177.782 156.204 176.792 152.927 175.315 149.788C175.06 149.245 174.229 149.667 174.486 150.21C175.932 153.281 176.885 156.477 177.363 159.837C177.447 160.429 178.359 160.234 178.275 159.641H178.272Z" fill="#BF8782"/>
<path d="M156.746 150.123C155.989 151.221 155.366 152.388 154.863 153.622C154.636 154.178 155.521 154.476 155.744 153.92C156.216 152.757 156.809 151.671 157.519 150.638C157.86 150.144 157.085 149.629 156.743 150.123H156.746Z" fill="#BF8782"/>
<path d="M172.338 153.415C172.515 153.238 172.366 152.782 172.13 152.838C169.036 153.545 163.333 153.458 160.583 152.844C160.41 152.807 160.341 153.064 160.369 153.238C160.351 153.387 160.397 153.533 160.509 153.623C163.029 155.652 169.526 156.226 172.338 153.415Z" fill="#BF8782"/>
</g>
</g>
<defs>
<clipPath id="clip0_1438_67411">
<rect width="320" height="240.009" fill="white" transform="translate(0 0.0371094)"/>
</clipPath>
<clipPath id="clip1_1438_67411">
<rect width="320" height="240" fill="white" transform="translate(0 0.0410156)"/>
</clipPath>
</defs>
</svg>
