<svg width="320" height="241" viewBox="0 0 320 241" fill="none" xmlns="http://www.w3.org/2000/svg">
<g clip-path="url(#clip0_189_93)">
<g clip-path="url(#clip1_189_93)">
<path d="M319.983 148.035C319.81 137.197 317.921 126.427 314.513 116.093C308.826 98.9538 297.756 83.3494 282.409 75.1234C260.377 63.3457 232.548 67.8597 211.363 54.4551C195.191 44.2126 185.684 25.217 170.315 13.6684C152.342 0.195095 128.66 -1.40887 106.736 1.06582C81.947 3.86131 57.1144 11.5145 37.0791 27.1876C2.23976 54.4092 -5.50955 100.787 3.39022 143.659C6.79818 160.019 14.3304 175.99 27.0072 186.072C37.752 194.619 51.1451 198.262 63.7133 203.326C84.2696 211.575 103.22 223.88 123.993 231.442C160.178 244.617 179.519 321.035 217.723 318.491C236.868 317.208 253.43 305.912 265.13 290.284C277.916 273.214 281.736 253.324 289.702 233.848C292.915 226.011 296.757 218.472 300.99 211.209C308.609 198.102 315.099 184.537 318.095 169.345C319.484 162.288 320.114 155.161 319.983 148.035Z" fill="#BBDCFF"/>
<path d="M97.8233 171.339C95.7771 165.858 93.1824 160.822 91.748 155.074C90.3979 149.704 89.533 144.178 87.8876 138.898C86.9594 135.868 85.757 132.971 85.5038 129.74C85.4405 128.894 85.4194 128.069 85.3562 127.289C85.546 127.133 85.7148 126.955 85.9046 126.799C86.1999 126.509 85.7991 125.908 85.4827 126.175C85.4194 126.22 85.335 126.287 85.2507 126.331C85.1452 125.618 79.1753 128.136 78.7112 128.314C74.7242 130.074 72.003 132.837 70.1677 136.179C69.4505 137.494 68.8598 138.876 68.3535 140.302C68.0793 141.104 67.8261 141.95 67.6363 142.797C67.3621 143.777 67.1511 144.802 66.9613 145.827C66.4339 148.701 66.1596 151.665 65.9487 154.584C65.6744 158.371 66.0964 162.115 66.012 165.88C65.9065 170.002 64.7041 173.701 63.7548 177.622C62.3414 183.371 62.3625 194.066 68.5645 196.784C69.1762 197.052 69.8091 197.274 70.5052 197.453C73.3952 198.232 76.8759 198.277 79.5339 197.475C80.2933 197.252 81.0317 197.007 81.7911 196.74C88.3095 194.422 94.4059 190.501 98.0554 183.26C100.017 179.405 99.3211 175.283 97.8655 171.361L97.8233 171.339Z" fill="#F4B33F"/>
<path d="M152.881 144.112C151.172 141.104 148.725 138.72 146.658 136.001C145.561 134.575 143.683 132.436 143.114 130.654C142.397 128.426 143.198 126.599 143.388 124.415C143.662 121.273 141.785 113.943 137.882 114.857C139.528 113.609 141.3 112.562 143.135 112.383C143.473 112.361 146.995 105.031 146.658 105.097C140.878 106.345 135.541 109.91 132.292 115.124C129.74 119.268 127.504 123.635 125.225 127.936C125.078 128.203 124.951 128.47 124.782 128.738C124.424 129.428 124.065 130.119 123.685 130.788C122.293 133.394 120.901 135.979 119.403 138.519C118.222 140.502 116.935 143.198 115.057 144.535C113.053 145.983 104.594 149.036 101.979 149.593C89.6801 152.222 81.8539 152.489 80.7358 153.47C79.6389 154.428 78.563 168.287 82.6344 172.988C87.866 179.048 95.1227 178.001 101.514 177.043C102.168 176.932 102.801 176.843 103.434 176.754C104.404 176.598 105.354 176.486 106.24 176.419C110.142 176.13 121.133 176.152 125.014 175.461C128.833 174.771 132.609 172.208 135.942 170.225C138.009 168.977 140.076 167.663 142.08 166.215C143.536 165.19 144.949 164.12 146.341 162.984C148.324 161.357 150.244 159.597 152.016 157.748C155.665 153.915 155.433 148.523 152.902 144.067L152.881 144.112Z" fill="#FCF8F4"/>
<path d="M133.855 212.649C132.906 208.193 131.661 203.736 130.037 199.458C129.467 197.943 128.813 196.45 128.138 194.98C127.041 192.618 125.797 190.323 124.404 188.162C124.362 188.095 124.32 188.05 124.278 187.984C123.898 187.404 123.518 186.803 123.096 186.246C122.717 185.711 122.316 185.176 121.915 184.641C121.788 184.485 121.641 184.307 121.514 184.151C121.324 183.884 121.113 183.639 120.902 183.371C120.692 183.104 120.27 183.46 120.438 183.75C120.67 184.129 120.902 184.485 121.113 184.864C121.388 185.332 121.641 185.8 121.915 186.268C121.535 185.8 121.092 185.377 120.586 185.02C118.371 183.349 115.228 182.525 112.802 181.99C109.216 181.166 105.482 180.943 101.811 181.344C96.7275 181.879 91.8124 183.527 87.4457 186.223C87.9731 185.555 88.5216 184.909 89.1333 184.307C89.3865 184.04 89.0489 183.527 88.7536 183.772C87.8676 184.485 86.4121 185.466 85.3151 186.179C84.5346 186.691 83.9228 187.048 83.8385 187.07C83.8385 187.07 83.8385 187.025 83.8595 187.025C83.8385 187.048 83.8174 187.07 83.8174 187.07C83.8174 187.07 83.8174 187.115 83.7963 187.115C82.2563 189.543 80.4632 193.242 78.7967 196.941C77.2146 200.394 75.7801 203.825 74.7465 206.098C74.5355 206.544 74.3457 207.012 74.1558 207.457C71.308 214.075 69.5571 220.781 68.7344 227.867C68.5023 229.805 68.3547 231.766 68.2703 233.771C68.0172 240.188 67.8695 246.65 68.1648 253.067C67.0257 267.26 69.5993 281.943 69.3461 296.225C69.2407 302.152 68.1859 307.789 67.4265 313.605C67.2788 314.83 67.2155 316.011 67.2788 317.125C67.4265 320.579 68.4391 323.653 69.1985 327.285C69.3461 328.021 69.4305 328.756 69.4938 329.469C69.7259 333.323 68.5656 337 67.8273 340.788C67.2999 343.528 66.435 349.076 68.6711 351.237C69.979 352.485 72.8268 352.463 74.4722 352.73C77.4045 353.198 80.4421 353.577 83.4166 353.243C86.3699 352.909 89.3021 352.463 92.2765 352.374C92.9937 352.374 93.6898 352.374 94.386 352.441C96.6853 352.574 98.9425 352.998 101.242 353.31C102.233 353.421 103.246 353.466 104.237 353.443C109.363 353.354 114.658 351.772 119.595 351.884C123.223 351.973 131.661 354.023 132.674 352.73C133.686 351.438 132.758 344.932 132.8 342.481C132.863 339.05 132.884 335.596 132.99 332.165C133.138 326.617 132.589 321.091 132.441 315.543C132.188 305.383 134.277 295.267 135.31 285.129C135.458 283.681 135.585 282.21 135.669 280.762C135.985 275.771 136.217 270.758 136.365 265.767C136.576 259.127 136.682 252.487 136.682 245.848C136.682 234.729 136.154 223.522 133.834 212.671L133.855 212.649Z" fill="#232968"/>
<path d="M102.611 345.377C100.037 333.256 103.244 321.158 102.21 308.903C101.219 297.005 96.8732 285.82 95.7341 273.944C95.3754 270.29 95.1223 266.636 94.8902 262.959C94.9113 262.826 94.9324 262.692 94.9535 262.581C94.9746 262.447 94.9324 262.336 94.8481 262.269C94.3418 254.114 93.9832 245.937 93.1394 237.804C93.1183 237.603 92.8651 237.603 92.8651 237.804C92.8651 244.488 93.055 251.173 93.2659 257.857C93.6035 267.995 91.8948 278.044 92.9706 288.137C93.7933 295.935 95.0379 303.778 94.5316 311.666C94.2363 315.944 93.055 319.999 92.5276 324.21C92.0002 328.332 93.0761 331.585 94.0465 335.507C95.2278 340.141 94.8481 344.887 94.5316 349.611C94.4684 350.547 94.4051 351.46 94.3418 352.396C96.6411 352.53 98.8983 352.953 101.198 353.265C102.189 353.376 103.202 353.421 104.193 353.399C103.687 350.725 103.138 348.051 102.569 345.377H102.611Z" fill="#171B4B"/>
<path d="M209.058 206.276C208.973 204.003 208.404 201.731 207.708 199.614C206.906 197.163 205.999 194.734 205.113 192.328C205.134 191.771 205.176 191.214 205.197 190.657C205.219 190.033 204.691 189.832 204.269 190.011C204.227 189.899 204.185 189.788 204.143 189.676C204.037 189.365 203.573 189.476 203.657 189.81C203.721 190.033 203.784 190.278 203.847 190.501C203.847 190.545 203.805 190.59 203.805 190.635C202.814 199.168 202.729 207.925 202.75 216.503C202.75 217.127 202.244 225.438 202.75 225.148C205.197 223.722 206.126 225.571 206.969 222.987C207.94 220.001 209.691 213.339 209.058 207.724C208.995 207.234 209.1 206.744 209.079 206.254L209.058 206.276Z" fill="#1A37A7"/>
<path d="M225.048 154.227C222.727 149.548 222.179 139.455 220.407 134.508C220.259 134.107 220.112 133.706 219.964 133.305C219.879 133.06 219.795 132.815 219.711 132.57C217.285 125.663 214.437 115.881 205.429 111.069C205.113 110.89 205.83 112.918 206.168 113.074C207.349 113.653 208.383 114.344 209.269 115.102C208.066 115.235 206.674 116.349 205.936 117.129C203.32 119.937 202.223 123.613 201.168 127.067C199.86 131.411 198.595 135.912 198.742 140.48C198.911 145.582 203.974 150.395 203.552 155.564C203.088 160.978 201.653 166.259 200.894 171.651C200.219 176.263 199.966 180.898 200.092 185.555C200.24 190.211 200.767 194.846 201.696 199.413C201.991 200.862 202.202 202.31 202.518 203.758C202.666 204.471 202.814 205.162 203.025 205.875C203.257 206.633 201.801 209.841 201.316 211.802C201.105 212.626 201.063 213.25 201.4 213.317C201.632 213.384 201.864 213.272 202.075 213.161C202.096 213.161 202.117 213.139 202.139 213.116C204.438 211.935 206.758 210.755 208.868 209.217C209.733 208.593 210.513 207.925 211.294 207.19C212.517 206.053 213.635 204.783 214.732 203.513C215.386 202.778 216.019 202.02 216.631 201.24C219.5 197.631 222.031 193.821 224.626 190.011C228.149 184.842 230.364 179.605 230.174 173.122C229.984 166.504 227.896 160.065 225.006 154.227H225.048Z" fill="#FCF8F4"/>
<path d="M178.216 236.69C177.309 244.578 176.275 252.71 175.389 260.264C174.166 271.025 173.28 280.606 173.765 286.644C174.44 295.133 174.799 304.959 172.647 314.496C172.183 316.523 171.613 318.529 170.917 320.512C166.888 331.808 170.537 349.878 168.28 351.794C166.044 353.711 144.696 353.666 144.274 353.287C143.831 352.908 137.861 282.121 136.827 250.705C135.815 219.288 138.789 186.513 138.789 186.513L179.186 193.977C179.186 193.977 180.41 217.528 178.216 236.69Z" fill="#2646C2"/>
<path d="M167.69 280.005C168.619 282.456 169.905 284.684 170.496 287.268C171.087 289.942 171.066 292.705 170.897 295.423C170.644 299.724 170.011 304.046 170.665 308.346C170.834 309.483 171.382 312.892 172.627 314.474C174.778 304.96 174.441 295.111 173.745 286.622C173.26 280.584 174.146 271.003 175.369 260.241C174.504 258.303 173.47 256.454 172.606 254.471C170.391 249.546 169.23 244.244 168.049 238.963C167.88 238.25 166.868 238.428 166.868 239.141C166.615 248.967 165.771 258.838 165.876 268.664" fill="#1A37A7"/>
<path d="M209.121 351.304C208.678 353.354 188.786 353.866 186.212 350.613C183.66 347.36 179.968 336.131 181.656 318.15C181.761 317.08 181.824 316.011 181.846 314.986C181.888 313.939 181.867 312.936 181.846 311.933C181.276 297.139 173.977 285.998 172.943 274.657C171.783 261.778 175.222 256.721 169.653 237.626C164.083 218.531 172.247 204.806 172.543 204.516C172.859 204.226 177.964 194.267 177.964 194.267L203.679 186.49C203.679 186.49 209.164 231.855 209.754 265.455C210.345 299.055 209.522 349.254 209.1 351.304H209.121Z" fill="#2646C2"/>
<path d="M182.119 59.0431C180.979 56.4363 176.908 56.9487 174.651 55.8124C170.748 53.8516 161.213 52.9604 159.673 58.7758C159.526 58.6644 158.049 55.1439 158.007 55.389C157.184 59.9121 157.437 63.4548 157.754 68.0002C158.028 71.9216 159.23 79.7646 160.77 83.441C160.813 83.5301 160.855 83.6192 160.897 83.7084C163.639 89.9248 171.423 91.4845 176.739 88.12C178.532 86.9837 179.629 85.2903 180.304 83.3296C181.401 80.1434 183.722 67.1758 183.806 63.9673C183.912 60.4691 183.532 62.2962 182.119 59.0431Z" fill="#A1552F"/>
<path d="M178.069 81.6808C175.053 80.2326 171.699 81.2352 169.737 83.7975C168.851 82.8172 167.712 82.1042 166.319 81.8368C164.252 81.4357 162.206 82.2156 160.877 83.7084C163.619 89.9248 171.403 91.4845 176.719 88.1201C178.512 86.9837 179.609 85.2904 180.284 83.3296C179.694 82.6389 178.934 82.0819 178.048 81.6585L178.069 81.6808Z" fill="#171B4B"/>
<path d="M183.342 99.305C182.857 98.0349 181.739 97.1437 180.937 96.1188C179.44 94.1357 178.701 94.3808 178.406 91.8408C178.026 88.5432 178.132 85.1564 178.237 81.8143C178.343 81.6583 178.343 81.4355 178.237 81.235C178.279 79.8535 178.322 78.4721 178.322 77.113C178.322 76.7342 177.794 76.5782 177.71 77.0015C177.499 78.0933 177.288 79.2742 177.098 80.4997C176.191 80.3437 175.052 80.6779 174.103 80.7448C173.301 80.3214 172.246 80.7002 171.318 80.8785C168.934 81.3464 166.508 81.5246 164.104 81.6583C163.977 80.6111 163.829 79.6307 163.661 78.7172C163.618 78.4944 163.281 78.5167 163.302 78.7618C163.323 79.8312 163.344 80.923 163.344 82.0148C163.302 82.1262 163.302 82.2376 163.344 82.349C163.344 85.9808 163.091 89.6572 162.353 93.1776C161.91 95.2498 161.256 95.0938 159.885 96.6758C159.146 97.5225 158.26 98.0795 157.332 98.5697V100.419C158.07 100.107 158.745 99.706 159.357 99.2158C159.357 99.3272 159.399 99.4609 159.463 99.5723C161.846 103.293 166.951 103.873 170.727 103.85C174.419 103.85 180.305 103.182 183.173 100.218C183.406 99.9734 183.427 99.6392 183.321 99.3272L183.342 99.305Z" fill="#A1552F"/>
<path d="M159.758 70.0493C159.652 69.9379 159.547 69.8265 159.442 69.6928C159.02 69.2249 158.429 68.7793 157.817 68.9353C157.227 69.0913 156.931 69.7151 156.762 70.2944C156.467 71.3862 156.425 72.5448 156.446 73.6812C156.446 76.0653 156.615 78.5385 157.754 80.6106C158.134 81.279 158.64 81.9475 159.336 82.2594C162.289 83.5963 162.5 78.7167 162.437 77.0233C162.332 74.4833 161.403 71.9878 159.758 70.0493Z" fill="#A1552F"/>
<path d="M183.869 68.9353C183.806 68.8016 180.451 63.5655 181.274 66.9745C181.422 67.5761 181.738 68.6679 181.148 68.7125C180.578 68.7347 180.198 69.2918 179.945 69.8265C179.481 70.8514 179.249 71.9655 179.059 73.0796C178.658 75.4191 178.363 77.8923 179.059 80.1427C179.291 80.878 179.629 81.6132 180.241 82.0811C181.359 82.9501 182.392 82.3485 182.941 81.1231C184.312 78.0928 185.556 72.0992 183.89 68.9353H183.869Z" fill="#A1552F"/>
<path d="M185.684 64.0551C185.41 64.3671 185.114 64.6567 184.819 64.9464C185.157 66.6843 184.334 68.8456 183.448 70.1156C182.731 71.1405 181.57 72.1432 180.305 72.7893C180.262 72.8562 180.241 72.923 180.22 73.0122C180.052 73.4132 179.862 73.8143 179.693 74.2376C179.461 74.7947 179.208 75.3517 178.997 75.931C178.448 77.3347 178.005 78.7607 177.541 80.1867C177.246 81.1225 177.183 82.5485 176.254 83.0832C175.453 83.5289 174.103 83.462 173.217 83.5957C172.141 83.7294 171.023 83.8408 169.947 83.8408C167.88 83.8408 165.623 83.5734 163.914 82.2588C163.829 82.1697 163.724 82.1251 163.661 82.036C163.429 80.6546 163.154 79.2732 162.754 77.9363C162.627 77.5352 162.5 77.1119 162.374 76.7108C161.952 75.4185 161.488 74.1039 161.024 72.8116C160.897 72.7002 160.771 72.5665 160.665 72.4106C160.349 72.3214 160.032 72.1878 159.737 72.0095C158.64 71.3411 157.754 70.1156 157.311 69.0016C156.699 67.4419 156.362 65.4811 156.636 63.7209C156.109 63.1639 155.581 62.5846 155.286 61.9384C153.83 58.7522 154.442 52.6695 158.366 52.1347C158.387 52.0456 158.408 51.9342 158.429 51.8451C158.492 51.5777 158.577 51.3103 158.661 51.043C158.682 50.7756 158.724 50.5305 158.746 50.2854C159.104 48.4138 160.138 46.7873 161.952 45.8737C164.019 44.8265 166.741 44.2695 168.597 45.7623C170.981 43.8461 173.807 42.5538 176.74 44.2472C177.921 44.9379 178.744 46.0297 179.25 47.2774C180.558 46.9209 181.992 47.322 183.026 48.3469C184.313 49.6615 185.578 52.6695 184.988 54.5634C186.76 54.6971 187.435 56.8138 187.604 58.3957C187.836 60.6238 187.182 62.4509 185.705 64.0774L185.684 64.0551Z" fill="#171B4B"/>
<path d="M210.175 132.37C208.361 139.077 206.294 145.694 204.543 152.423C204.142 153.938 207.813 155.743 207.77 157.303C207.644 164.7 209.732 170.694 209.964 178.091C210.028 180.386 209.479 182.569 209.268 184.842C208.994 187.65 209.121 189.989 208.024 192.707C207.138 194.869 206.041 196.985 205.64 199.303C205.366 200.773 205.408 202.333 204.965 203.759C203.762 207.836 199.543 209.663 196.4 211.736C192.413 214.365 185.157 219.422 180.706 220.893C173.449 223.299 165.833 224.124 158.239 224.124C154.379 224.124 150.518 223.946 146.679 223.656C143.62 223.411 139.971 223.099 137.334 221.272C137.165 221.16 136.997 221.027 136.849 220.893C134.676 219.044 134.55 208.839 135.752 203.647C137.229 197.342 134.718 185.11 134.36 181.5C134.212 180.052 134.107 178.715 134.022 177.445C133.98 176.799 133.938 176.153 133.896 175.551C133.516 167.106 134.317 162.338 134.233 157.191C133.832 153.292 133.453 149.482 133.157 146.073C133.073 145.003 132.988 143.934 132.904 142.954C132.756 140.948 132.63 139.144 132.567 137.606C132.567 137.517 132.63 137.45 132.714 137.428C132.356 135.066 132.018 132.682 131.681 130.32C130.942 125.062 130.394 119.469 133.263 114.813C133.79 113.966 134.36 113.164 134.993 112.428C135.372 111.961 135.794 111.493 136.237 111.069C140.836 106.413 147.354 103.783 152.923 101.288C152.944 101.288 152.987 101.266 153.008 101.243C153.662 100.954 154.379 100.553 155.054 100.085C157.48 98.4359 159.843 95.829 160.243 92.9993C160.412 91.9075 161.319 91.2837 162.543 90.9717C163.028 90.838 163.576 90.7712 164.146 90.7043C165.032 90.6375 165.981 90.6152 166.846 90.6375C167.184 90.6375 167.5 90.6375 167.816 90.6598C168.407 90.6821 168.956 90.7043 169.377 90.7043H170.896C171.93 90.7043 172.943 90.7043 173.976 90.7043C174.293 90.7043 174.609 90.7043 174.925 90.7043C175.706 90.7043 176.465 90.7043 177.246 90.7043C177.605 90.7043 177.921 90.7044 178.216 90.7266C178.575 90.7266 178.891 90.7266 179.166 90.7712C180.895 90.9272 181.423 91.5288 181.971 94.1802C182.456 96.5643 183.828 98.5027 185.621 100.085C186.106 100.53 186.633 100.931 187.161 101.31C189.439 102.937 201.59 108.128 206.062 111.515C209.036 113.765 211.272 116.751 211.04 120.383C210.766 125.151 210.112 126.933 209.416 131.657C209.796 131.523 210.302 131.791 210.133 132.348L210.175 132.37Z" fill="#FCF8F4"/>
<path d="M171.023 186.178L168.218 189.431C168.218 189.431 167.543 189.587 166.404 189.832C164.8 190.189 162.332 190.724 159.569 191.303C153.578 192.551 146.3 193.91 143.916 193.821C139.655 193.643 142.904 179.071 142.904 179.071C142.904 179.071 155.244 179.449 160.56 179.271C160.94 179.271 161.277 179.249 161.594 179.227C163.492 179.115 164.99 179.071 166.066 179.048C167.564 179.004 168.323 179.048 168.323 179.048L171.023 186.178Z" fill="#A76045"/>
<path d="M134.677 140.257C134.445 142.508 133.855 142.173 132.99 144.401C131.893 147.253 130.437 149.905 129.172 152.69C127.526 156.344 126.978 159.731 127.442 163.741C128.075 169.267 127.379 173.857 125.29 178.982C124.657 180.541 124.91 182.034 125.185 183.393C125.311 184.062 125.459 184.686 125.522 185.243C125.628 186.335 125.417 187.27 124.278 187.983C124.13 188.095 126.324 186.624 126.134 186.58C116.725 183.705 113.477 188.54 111.03 189.12C110.249 189.298 105.292 188.206 104.469 188.206C99.1533 188.184 95.4828 189.298 90.1879 188.563C88.0151 188.251 85.779 187.983 83.7961 187.114C82.4038 186.49 81.1592 185.599 80.1889 184.173C79.9568 183.839 79.7459 183.505 79.5771 183.126C78.2059 180.541 77.8051 177.467 77.4465 174.548C76.7082 168.532 76.0964 162.494 75.3581 156.5C74.7252 151.398 73.4806 145.827 74.24 140.68C75.5901 131.523 85.3571 126.732 92.7615 124.304C95.4828 123.413 98.3939 122.7 100.461 120.471C101.664 119.157 102.402 117.441 103.9 116.439C105.629 115.28 107.655 117.931 109.363 118.845C109.3 118.622 109.448 118.332 109.722 118.422C114.574 120.07 119.447 121.675 124.256 123.435C128.328 124.928 132.041 127.646 134.53 131.412C134.551 132.548 134.551 133.684 134.572 134.821C134.466 134.598 134.382 134.375 134.277 134.174C134.403 134.731 134.509 135.288 134.593 135.845C134.614 137.316 134.635 138.809 134.656 140.279L134.677 140.257Z" fill="#F4B33F"/>
<path d="M129.319 179.226C128.433 181.232 126.935 182.502 125.185 183.393C124.172 183.928 123.054 184.307 121.915 184.641C121.641 184.708 121.387 184.797 121.113 184.864C120.944 184.908 120.755 184.953 120.586 184.997C119.637 185.242 118.687 185.487 117.801 185.733C115.46 186.401 112.633 187.649 110.207 187.181C108.414 186.847 106.811 185.933 104.975 185.755C100.862 185.332 97.2336 187.025 93.2888 187.782C90.6941 188.273 87.9517 187.381 85.2938 186.111C83.2897 185.153 81.3279 183.995 79.5559 183.081C79.7458 183.438 79.9356 183.794 80.1677 184.128C81.138 185.554 82.3827 186.468 83.7749 187.069C82.235 189.498 80.4419 193.197 78.7754 196.895C80.7794 195.313 83.8804 194.556 86.0532 193.887C88.9643 192.996 91.9387 193.509 94.8076 192.773C97.2547 192.15 99.4697 190.679 101.959 190.1C103.309 189.788 104.701 189.632 106.094 189.476C107.254 189.342 108.393 189.253 109.553 189.052C113.73 189.899 118.518 187.716 122.463 186.423C122.674 186.356 122.885 186.29 123.096 186.223C123.919 185.933 124.742 185.621 125.522 185.22C127.821 184.084 129.741 182.413 130.1 179.427C130.163 178.981 129.488 178.825 129.34 179.204L129.319 179.226Z" fill="#171B4B"/>
<path d="M114.216 82.2366C114.216 82.2366 114.574 83.774 114.743 84.4424C115.165 86.158 115.587 87.896 115.987 89.6339C116.958 93.9119 118.435 101.086 118.139 105.498C117.844 110.043 113.182 110.467 109.912 109.464V84.0413L114.237 82.2366H114.216Z" fill="#A76045"/>
<path d="M115.016 118.778C114.911 117.263 114.447 115.993 114.046 114.544C113.624 113.052 113.329 111.782 113.729 110.133C113.877 109.531 114.151 108.996 114.257 108.35C114.594 106.3 114.067 104.362 113.16 102.602C113.898 101.443 114.362 100.084 114.489 98.5911C114.552 97.8335 114.531 97.076 114.426 96.363C114.383 95.9842 114.299 95.5831 114.215 95.2266C114.13 94.8924 114.025 94.5582 113.919 94.224C113.329 92.5306 112.97 91.1715 113.223 89.7009C113.35 89.0102 113.603 88.2972 114.046 87.5397C114.109 87.4283 114.172 87.3168 114.236 87.1832C115.037 85.6458 114.51 84.554 114.447 83.0834C114.341 80.6771 113.202 77.8919 111.177 76.867C104.975 73.7253 95.1024 73.8813 89.8076 78.2039C84.9557 82.1699 83.1626 88.4532 82.9728 94.38C82.9728 94.8702 82.9728 95.3381 82.9728 95.8282C83.015 97.9449 83.2892 100.084 83.7533 102.245C85.2089 109.063 77.1505 111.871 77.5935 118.444C77.6568 119.313 77.8889 120.204 78.3319 120.939C78.8592 121.83 80.1039 122.343 80.5258 123.212C81.3063 124.883 79.5343 126.153 78.7749 127.311C78.0787 128.403 77.5302 129.584 77.3404 130.899C76.8974 134.375 79.0913 136.179 81.7282 136.826C82.6353 137.071 83.6267 137.16 84.5549 137.137C84.9768 137.472 85.4409 137.761 86.0105 137.962C86.0316 137.962 86.0527 137.962 86.0737 137.984C87.0863 138.318 88.2676 138.363 89.2802 137.917C90.1029 137.539 90.4826 136.736 91.4741 136.848C91.9593 136.892 92.7609 137.695 93.3305 137.917C96.7268 139.276 99.9754 138.229 102.444 135.957C103.477 136.269 104.637 136.313 105.734 136.135C108.624 135.645 109.953 132.926 110.059 130.074C113.392 127.623 115.354 123.167 115.058 118.8L115.016 118.778Z" fill="#171B4B"/>
<path d="M148.642 179.249C148.009 177.845 147.081 177.043 146.005 176.687C145.583 176.553 145.14 176.464 144.676 176.464C144.634 176.464 144.592 176.464 144.549 176.464C144.549 176.152 144.549 175.84 144.549 175.528C144.549 174.859 144.465 174.191 144.338 173.545C144.022 171.985 143.347 170.515 142.208 169.044C140.9 167.351 139.866 166.103 139.655 163.808C139.508 162.404 139.655 160.934 139.697 159.53C139.761 156.723 139.761 153.937 139.655 151.13C139.381 143.243 138.748 132.681 129.171 125.975C128.897 125.774 130.816 129.606 131.049 129.785C131.681 130.253 132.272 130.765 132.778 131.278C132.736 131.3 132.715 131.3 132.673 131.322C131.259 132.325 129.466 131.79 127.969 132.548C126.555 133.261 125.733 134.642 125.1 136.09C123.391 139.989 122.8 144.423 123.011 148.701C123.159 151.331 123.581 151.375 123.496 154.027C123.391 157.146 122.589 160.154 121.978 163.184C121.007 167.975 120.1 172.988 120.206 177.912C120.396 185.799 124.446 193.108 131.365 196.294C134.171 197.586 137.947 198.321 141.322 197.809C141.997 197.698 142.651 197.542 143.284 197.341C145.752 196.539 147.84 194.912 148.916 192.127C150.393 188.34 150.35 182.992 148.663 179.271L148.642 179.249Z" fill="#F4B33F"/>
<path d="M193.447 178.915C192.94 178.871 192.35 178.915 191.738 179.004C192.097 178.759 192.497 178.47 192.54 178.091C192.561 177.912 192.497 177.667 192.265 177.4C192.033 177.133 191.696 176.999 191.337 176.932C189.966 176.687 188.658 177.422 187.392 177.801C183.912 178.804 180.558 177.289 177.119 177.021C178.891 175.64 181.022 175.306 183.237 174.392C184.355 173.924 185.093 173.412 184.966 172.03C184.924 171.629 184.65 171.34 184.27 171.34C181.992 171.295 179.904 172.32 177.646 172.52C175.685 172.699 173.702 172.476 171.824 173.144C169.208 174.058 166.656 176.353 166.171 179.294C166.023 179.316 165.897 179.383 165.875 179.584C165.496 182.034 164.504 187.85 167.162 189.298C168.639 190.123 171.318 189.922 172.963 190.078C175.495 190.323 177.984 190.189 180.515 190.39C182.203 190.501 190.008 190.457 190.135 188.964C190.198 188.295 189.945 187.939 189.586 187.694C189.354 187.538 189.059 187.449 188.721 187.382C188.194 187.271 187.624 187.204 187.055 187.159C187.92 186.936 188.785 186.669 189.586 186.357C191.569 185.577 193.194 184.441 193.51 183.015C193.573 182.77 193.594 182.547 193.573 182.302C194.122 182.034 194.628 181.678 194.881 181.21C194.966 181.054 195.029 180.876 195.05 180.698C195.198 179.472 194.501 178.96 193.468 178.871L193.447 178.915Z" fill="#A76045"/>
<path d="M116.207 164.932C116.207 167.564 117.844 169.721 118.912 171.928C119.39 172.917 118.86 174.107 119.332 175.058C119.791 175.982 119.584 177.351 119.99 178.352C120.218 178.912 120.918 181.855 120.484 180.397" stroke="#C68D28" stroke-width="1.51235" stroke-linecap="round"/>
<path d="M203.056 141.365C203.056 146.03 203.056 150.694 203.056 155.358C203.056 157.574 202.773 160.032 203.239 162.19C203.826 164.913 204.372 167.636 204.372 170.455C204.372 178.824 204.043 187.137 204.043 195.494" stroke="#C68D28" stroke-width="1.51235" stroke-linecap="round"/>
</g>
</g>
<defs>
<clipPath id="clip0_189_93">
<rect width="320" height="240.009" fill="white" transform="translate(0 0.0917969)"/>
</clipPath>
<clipPath id="clip1_189_93">
<rect width="320" height="240" fill="white" transform="translate(0 0.0957031)"/>
</clipPath>
</defs>
</svg>
