<?xml version="1.0" encoding="utf-8"?>
<svg xmlns="http://www.w3.org/2000/svg" fill="none" height="241" viewBox="0 0 320 241" width="320">
<g clip-path="url(#clip0_1438_66919)">
<g clip-path="url(#clip1_1438_66919)">
<path d="M165.769 27.5465C168.112 31.1131 171.009 34.3097 174.208 37.1241C177.598 40.1054 181.333 42.6712 185.225 44.9519C188.482 46.8595 192.55 49.7862 196.518 49.2615C202.271 48.4972 205.54 42.5226 207.417 36.6389C206.89 40.718 206.363 44.7972 205.834 48.8763C205.71 49.8347 207.19 50.0743 207.314 49.1129C208.534 39.6808 209.765 33.139 210.38 23.6463C210.755 17.8414 210.204 10.8326 205.383 6.82621C203.201 5.01258 200.47 4.08757 197.647 4.43331C194.396 4.83061 192.604 1.96459 189.372 1.00015C187.994 0.590718 186.605 0.129728 185.161 0.0417764C183.037 -0.0856023 180.609 0.690801 179.235 2.39525C178.033 3.88437 177.468 4.70929 175.449 5.10963C172.582 5.67677 167.815 4.77905 166.462 8.24254C165.881 9.73469 166.299 11.3754 166.072 12.9192C165.845 14.4659 165.085 15.7094 164.271 17.0135C163.872 17.6504 163.587 18.2751 163.399 18.8908C162.458 21.9812 164.15 25.0868 165.766 27.5465H165.769Z" fill="#4B3E3A"/>
<path d="M181.459 55.9821L183.381 62.997L185.376 70.294L191.259 91.8391C191.259 91.8391 215.83 82.4222 215.894 82.0189C215.945 81.5852 205.27 45.4855 205.322 45.0518L181.462 55.979L181.459 55.9821Z" fill="#844919"/>
<path d="M228.37 72.638C227.432 72.0739 211.869 67 211.869 67L187.029 69.8175L164.047 81.4696C164.047 81.4696 193.491 93.4948 195.364 93.4948C197.238 93.4948 215.244 87.4807 218.806 85.4153C222.368 83.3469 228.37 72.638 228.37 72.638Z" fill="#844919"/>
<path d="M168.709 33.3515C168.721 33.8398 168.751 34.3311 168.778 34.8254C169.157 41.3096 170.037 47.8909 170.67 51.0814C171.953 57.423 175.661 64.9566 184.369 66.3668C193.077 67.7771 202.145 60.7318 205.432 54.5145C208.701 48.3094 210.144 25.6148 205.789 16.9075C201.43 8.21847 186.155 9.59537 186.155 9.59537C186.155 9.59537 172.671 13.7412 169.919 19.2822C168.648 21.8328 168.439 27.4344 168.709 33.3545V33.3515Z" fill="#844919"/>
<path d="M188.796 37.7367C189.328 36.7965 190.539 37.2181 191.035 37.9611C191.414 38.5252 191.58 39.335 191.589 40.0053C191.595 40.448 191.492 40.906 191.22 41.2578C190.829 41.7613 190.124 41.919 189.567 41.6066C189.104 41.3458 188.808 40.8484 188.671 40.3358C188.466 39.5655 188.39 38.4555 188.796 37.7397V37.7367Z" fill="black"/>
<path d="M173.527 38.2702C174.062 37.3816 175.212 37.8183 175.669 38.5401C176.018 39.0921 176.16 39.8746 176.151 40.5175C176.145 40.9452 176.036 41.3819 175.766 41.7125C175.379 42.1886 174.698 42.319 174.171 42.0036C173.732 41.7398 173.46 41.2575 173.342 40.7602C173.163 40.0171 173.118 38.9496 173.527 38.2702Z" fill="black"/>
<path d="M185.334 33.154C185.334 32.9144 185.488 32.69 185.864 32.5293C188.14 31.5587 192.075 31.6801 194.454 32.7203C195.068 32.9902 195.679 33.4694 195.413 34.0578C195.068 34.8221 193.86 34.5825 193.052 34.5249C191.542 34.4217 190.025 34.4794 188.515 34.4885C187.556 34.4945 185.316 34.6098 185.334 33.154Z" fill="#4B3E3A"/>
<path d="M168.709 33.3512C168.721 33.8394 168.751 34.3308 168.779 34.8251C169.269 34.995 169.941 34.8736 170.464 34.8372C171.724 34.7493 172.992 34.8009 174.251 34.819C174.796 34.8312 175.465 34.9222 176.085 34.8524C176.581 34.7948 177.589 34.4703 177.707 33.8334C177.853 32.9266 176.612 32.6991 176.04 32.5778C175.277 32.411 174.472 32.3109 173.682 32.3079C172.169 32.2624 170.573 32.4656 169.166 33.0934C169.003 33.1601 168.851 33.2571 168.715 33.3572L168.709 33.3512Z" fill="#4B3E3A"/>
<path d="M177.916 11.1446C184.405 8.9367 193.177 8.41202 199.86 10.8716C214.951 16.4278 206.994 51.0748 206.994 51.0748C206.994 51.0748 203.758 41.212 201.939 36.3413C200.728 30.0937 197.354 21.5836 191.721 19.6335C189.23 18.7721 186.918 19.0967 184.366 19.494C181.748 19.9034 179.239 19.5546 176.621 19.6335C172.58 19.7578 169.015 24.0614 168.615 27.6128C168.615 27.631 166.736 14.9447 177.916 11.1385V11.1446Z" fill="#4B3E3A"/>
<path d="M199.983 36.8394C200.981 39.8813 201.98 42.9202 202.979 45.9621C203.13 46.4201 203.748 46.5778 204.117 46.2988C207.383 43.8361 209.716 39.2444 207.343 35.2745C205.57 32.3114 202.31 33.4578 201.078 35.9205C200.576 35.6263 199.74 36.1085 199.983 36.8394Z" fill="#844919"/>
<path d="M221.984 70.3516C221.984 70.3516 208.694 79.6987 197.147 80.8118C183.527 82.128 175.07 75.8804 175.07 75.8804C175.07 75.8804 161.817 79.1922 159.068 82.1978C156.317 85.2033 145.17 145.802 143.92 164.594C142.67 183.385 137.043 210.589 137.043 210.589C137.043 210.589 169.299 212.946 193.303 216.203C217.308 219.46 228.437 224.462 235.06 230.233C240.011 234.549 250.084 242.079 252.312 239.504C263.859 226.154 258.562 214.951 261.313 184.634C264.065 154.318 270.832 93.7771 254.924 80.2477C249.77 75.8652 221.981 70.3516 221.981 70.3516H221.984Z" fill="#A2C6F5"/>
<path d="M180.204 47.4905C180.204 47.4905 180.231 47.4966 180.243 47.4996L184.153 48.2366C184.526 48.3063 184.886 48.0607 184.959 47.6846C185.031 47.3116 184.789 46.9416 184.414 46.8779L181.206 46.2743L182.574 40.3816C182.658 40.0146 182.434 39.6476 182.074 39.5566H182.062C181.693 39.4687 181.324 39.7022 181.236 40.0722L179.707 46.6625C179.665 46.8445 179.698 47.0386 179.801 47.1963C179.895 47.3419 180.04 47.445 180.21 47.4875L180.204 47.4905Z" fill="#66340E"/>
<path d="M177.265 67.4495C181.744 70.5885 185.797 70.3156 190.57 69.4209C194.88 68.6141 199.892 63.0034 200.921 58.4633C201.832 54.4417 203.173 48.4762 202.586 42.2892C201.551 31.3892 199.938 29.5059 199.938 29.5059C199.938 29.5059 201.079 39.1897 199.938 45.0552C199.317 48.2457 197.934 52.2338 196.43 55.1636C195.037 57.8749 188.86 62.23 186.802 57.605C186.375 56.6466 186.814 55.6731 186.602 54.648C186.529 54.3538 186.193 54.0626 185.879 54.096C184.937 54.2628 183.993 54.2476 183.049 54.0535C182.601 53.9838 182.068 54.2416 182.098 54.7784C182.156 55.755 182.694 57.887 182.304 58.7787C180.993 61.763 177.588 60.4558 176.453 59.5157C174.335 57.7627 171.459 54.0232 170.742 51.4392C170.63 50.9146 173.036 64.4865 177.262 67.4495H177.265Z" fill="#4B3E3A"/>
<path d="M184.32 55.1939H184.36C187.32 55.1848 189.732 53.5714 189.832 53.5016C190.174 53.2711 190.265 52.8041 190.032 52.4583C189.802 52.1126 189.333 52.0246 188.991 52.2551C188.969 52.2672 186.845 53.6805 184.351 53.6866H184.32C181.86 53.6866 180.416 52.7768 180.401 52.7677C180.053 52.5432 179.59 52.6403 179.366 52.9891C179.142 53.3348 179.235 53.7988 179.581 54.0263C179.653 54.0748 181.381 55.1909 184.317 55.1909L184.32 55.1939Z" fill="#66340E"/>
<path d="M167.498 78.1064C161.853 79.5197 149.313 85.1123 143.578 110.409C137.839 135.703 135.974 140.592 125.505 147.634C115.036 154.676 108.15 152.665 100.405 165.167C92.6593 177.671 93.54 190.688 114.542 191.877C135.545 193.066 147.739 180.689 151.038 172.355C154.337 164.02 167.501 78.1095 167.501 78.1095L167.498 78.1064Z" fill="#D0E2FA"/>
<path d="M123.077 213.125L65.9028 190.916C65.9028 190.916 64.5045 190.006 64.4863 188.077C64.4682 186.148 122.808 211.327 122.808 211.327L125.714 211.315C125.714 212.679 124.345 213.617 123.077 213.125Z" fill="#E9CCAF"/>
<path d="M123.437 213.222C124.905 213.89 126.566 214.008 128.113 213.556L128.494 213.444V210.59H123.776L123.434 213.219L123.437 213.222Z" fill="#E9CCAF"/>
<path d="M125.714 210.79L179.356 197.71L112.088 178.309L125.714 210.79Z" fill="#B2957D"/>
<path d="M128.496 213.446L177.798 200.99C178.715 200.76 179.357 199.932 179.357 198.986V197.712L122.809 211.329L123.85 212.658C124.855 213.825 127.085 213.804 128.496 213.446Z" fill="#BFA186"/>
<path d="M115.972 158.762C117.93 169.835 125.715 210.79 125.715 210.79L122.809 211.33L68.9578 190.264C67.9378 189.891 67.16 189.045 66.8724 187.995L52.5168 141.108C52.2171 140.016 54.3177 138.063 57.1053 138.882L112.794 155.298C114.434 155.738 115.672 157.082 115.969 158.759L115.972 158.762Z" fill="#BFA186"/>
<path d="M113.066 159.298C115.024 170.371 122.808 211.326 122.808 211.326L66.1183 189.408C65.0983 189.035 64.3204 188.189 64.0329 187.139L52.4134 141.229C52.1137 140.137 53.1095 139.133 54.1991 139.424L109.887 155.841C111.528 156.28 112.766 157.624 113.063 159.301L113.066 159.298Z" fill="#E9CCAF"/>
<path d="M79.6592 160.924C78.2791 158.528 78.6786 155.704 80.5551 154.619C82.4316 153.533 85.0708 154.597 86.4509 156.996C87.8311 159.392 87.4315 162.216 85.555 163.302C83.6785 164.387 81.0393 163.323 79.6592 160.924Z" fill="white"/>
<path d="M152.27 178.4C151.389 178.657 143.181 186.973 142.587 187.996C141.997 189.018 141.943 190.58 144.146 190.31C146.353 190.04 149.954 186.482 153.075 185.245C156.195 184.004 157.809 176.783 152.267 178.4H152.27Z" fill="#66340E"/>
<path d="M137.097 208.479L132.473 209.54L132.515 211.699L136.997 210.589L137.097 208.479Z" fill="#463D41"/>
<path d="M146.716 206.201L143.45 206.905L143.393 209.055L146.616 208.182L146.716 206.201Z" fill="#463D41"/>
<path d="M172.973 200.081L170.24 200.785L169.982 202.095L172.722 201.376L172.973 200.081Z" fill="#463D41"/>
<path d="M176.906 199.074L174.173 199.778L173.916 201.088L176.655 200.369L176.906 199.074Z" fill="#463D41"/>
<path d="M141.367 208.443C141.334 207.876 140.786 207.512 140.151 207.66C139.518 207.824 139.064 208.525 139.125 209.195C139.182 209.85 139.712 210.144 140.317 209.877C140.922 209.626 141.398 208.995 141.367 208.443Z" fill="#463D41"/>
<path d="M129.434 211.369C129.401 210.802 128.853 210.438 128.214 210.589C127.582 210.753 127.128 211.454 127.191 212.124C127.249 212.779 127.921 213.006 128.523 212.739C129.132 212.488 129.464 211.924 129.434 211.372V211.369Z" fill="#B2957D"/>
<path d="M168.421 200.754L148.693 205.458L148.354 207.808L168.103 202.804L168.421 200.754Z" fill="#B2957D"/>
<path d="M187.771 174.32C187.771 174.32 177.444 177.535 174.217 176.889C170.991 176.243 161.033 175.915 158.965 175.648C156.898 175.382 145.603 179.91 143.989 180.986C142.376 182.063 133.232 189.393 133.232 190.904C133.232 192.414 134.955 192.414 136.029 191.874C137.104 191.334 144.204 185.73 145.173 185.19C146.141 184.65 150.227 183.261 150.227 183.261C150.227 183.261 144.525 187.082 142.806 189.478C141.084 191.874 137.213 197.142 136.783 198.659C136.353 200.175 138.826 201.024 140.978 198.659C143.13 196.293 147.11 191.119 147.969 190.364C148.829 189.609 155.391 186.015 155.391 186.015C155.391 186.015 154.961 187.561 153.669 188.853C151.508 191.022 149.58 193.488 148.829 194.783C148.075 196.075 145.173 200.603 145.494 201.249C145.817 201.895 147.86 202.541 149.583 200.493C151.305 198.446 153.887 194.458 155.07 193.272C156.254 192.086 160.125 188.423 160.503 188.963C160.878 189.499 157.222 194.137 156.683 195.753C156.145 197.37 153.172 200.515 154.211 201.036C154.855 201.361 156.65 201.54 158.478 199.493C160.306 197.445 161.133 195.037 163.784 192.593C164.952 191.519 170.991 192.951 176.584 191.119C182.177 189.287 181.856 188.859 184.653 188.104C187.45 187.346 195.519 186.915 195.84 186.594C196.161 186.272 195.955 172.218 187.771 174.323V174.32Z" fill="#844919"/>
<path d="M250.27 78.1398C241.296 75.8833 233.057 82.0461 230.693 97.9987C228.326 113.951 228.326 146.072 221.659 152.756C214.988 159.441 185.332 172.803 185.332 172.803C185.332 172.803 188.731 178.129 189.924 189.824C189.924 189.824 193.471 198.243 216.277 200.614C239.083 202.986 260.167 195.871 267.268 175.175C274.369 154.479 275.013 84.3631 250.27 78.1367V78.1398Z" fill="#D0E2FA"/>
<path d="M193.127 41.716C192.395 39.8903 190.787 39.1836 188.929 39.0684C186.353 38.9077 184.223 40.0146 183.678 42.4621C182.594 41.9041 181.405 41.6554 180.173 41.6766C179.286 41.6918 178.054 41.7494 177.086 42.0861C177.049 41.9617 177.013 41.8404 176.962 41.716C176.229 39.8903 174.622 39.1836 172.763 39.0684C169.93 38.8895 167.63 40.2421 167.391 43.2294C167.146 46.3229 170.66 48.3215 173.39 47.7059C175.533 47.2237 177.222 45.4222 177.261 43.3325C178.106 42.9565 179.41 42.9079 180.17 42.8958C181.353 42.8776 182.434 43.1172 183.451 43.7329C183.484 43.7541 183.517 43.7541 183.551 43.7693C183.723 46.5534 186.986 48.2852 189.553 47.7089C192.237 47.1054 194.214 44.4365 193.124 41.7191L193.127 41.716ZM174.564 45.8953C172.836 47.0781 170.263 46.7596 169.062 44.949C168.217 43.6813 168.768 41.9799 169.812 41.0094C171.199 39.7235 173.714 39.8418 175.097 41.0792C176.598 42.4197 176.144 44.8126 174.564 45.8923V45.8953ZM190.73 45.8953C189.002 47.0781 186.429 46.7596 185.227 44.949C184.383 43.6813 184.934 41.9799 185.978 41.0094C187.364 39.7235 189.879 39.8418 191.263 41.0792C192.764 42.4197 192.31 44.8126 190.73 45.8923V45.8953Z" fill="#E4CDBD"/>
<path d="M102.045 96.3192C102.045 111.147 90.05 123.169 75.2525 123.169C60.4549 123.169 48.457 111.147 48.457 96.3192C48.457 81.4917 60.4549 69.4727 75.2525 69.4727C90.05 69.4727 102.045 81.4917 102.045 96.3192Z" fill="#FFB100"/>
<path d="M118.48 84.7665C118.48 98.1625 110.801 109.76 99.6114 115.38C95.0138 117.691 89.8169 118.992 84.3235 118.992C79.9862 118.992 75.8366 118.182 72.0199 116.702C59.2321 111.756 50.1641 99.3211 50.1641 84.7635C50.1641 65.8599 65.458 50.5381 84.3204 50.5381C103.183 50.5381 118.477 65.863 118.477 84.7635L118.48 84.7665Z" fill="#FCF8F4"/>
<path d="M98.8995 84.9516C98.8329 79.5622 98.9116 75.1131 98.4576 71.4161C98.0974 68.4894 97.3589 65.2958 93.9902 62.7998C91.2238 60.7496 85.5578 59.1756 80.034 61.4411C78.9505 61.8839 78.2907 62.9818 77.2495 63.4943C76.4141 63.9068 75.609 64.1039 74.8977 64.759C73.5478 66.0025 72.9304 67.8677 72.5974 69.6267C72.0799 72.338 72.1737 75.1161 72.2766 77.8578C72.3946 80.924 72.4521 84.0296 72.2948 87.0958C72.2433 88.0663 71.6289 90.1438 72.7457 90.72C73.9746 91.3538 76.2022 91.1537 77.5219 91.2507C78.5025 91.3235 87.5251 90.4986 88.0457 90.6047C88.6934 90.7352 89.3018 91.0384 89.9737 91.1446C90.6729 91.2538 91.366 91.2902 92.0743 91.3084C93.7359 91.3538 95.3794 91.6814 97.0441 91.6935C99.3172 91.7087 99.066 89.0216 98.9782 87.4445C98.9328 86.6166 98.9086 85.7886 98.8995 84.9576V84.9516Z" fill="#4B3E3A"/>
<path d="M106.849 110.494C102.969 113.909 98.3107 116.456 93.1744 117.83C93.0806 115.164 93.0352 113.46 93.0352 113.46L101.274 99.3027C101.274 99.3027 106.068 102.302 106.622 108.244C106.695 109.026 106.767 109.772 106.846 110.494H106.849Z" fill="#ED1A60"/>
<path d="M102.766 113.642C101.101 114.719 99.3368 115.653 97.4874 116.423C97.1152 113.054 96.8064 110.291 96.6097 108.862C95.8561 103.461 90.75 93.5586 90.75 93.5586C90.75 93.5586 100.653 97.759 102.064 100.222C102.942 101.753 102.908 108.171 102.766 113.645V113.642Z" fill="#ED1A60"/>
<path d="M79.7341 67.1337C82.1131 66.2026 88.7627 62.7998 88.7627 62.7998C88.7627 62.7998 92.9154 66.4028 94.1382 70.7246C94.1624 70.8186 94.1896 70.9096 94.2078 71.0036C94.2956 71.3251 94.3652 71.6587 94.4257 71.9984C95.2066 76.2474 94.465 81.8217 93.9081 83.1167C92.7247 85.8614 89.8675 88.1178 89.1774 88.2391C86.7469 88.6668 80.9841 86.2799 79.2861 84.9728C77.5881 83.6656 77.4731 82.3979 77.4731 82.3979L77.3672 72.3411C77.3672 72.3411 77.3521 68.0678 79.731 67.1367L79.7341 67.1337Z" fill="#EFB7A5"/>
<path d="M90.746 93.4889C90.746 93.4889 92.5257 96.9069 91.9203 100.082C90.7823 106.069 86.8718 113.709 86.6811 113.66C86.3845 113.581 71.6172 96.4399 71.6172 96.4399C71.6172 96.4399 77.153 92.0787 77.3346 91.281C77.5162 90.4804 77.4708 79.0254 77.4708 79.0254C77.4708 79.0254 82.819 81.5912 83.0884 81.5821C83.3578 81.573 89.1751 85.1426 89.1751 85.1426C89.1751 85.1426 89.1812 85.5702 89.1933 86.2193C89.2145 87.2959 89.2477 88.9882 89.2992 90.35C89.3385 91.4812 89.39 92.385 89.4505 92.5215C89.6291 92.9339 90.7429 93.4859 90.7429 93.4859L90.746 93.4889Z" fill="#EFB7A5"/>
<path d="M89.3649 92.3547C87.9424 92.012 85.5726 91.2235 84.4345 90.5138C82.9061 89.5615 82.0465 87.5022 82.7033 87.2293C83.3601 86.9593 83.3238 87.0412 85.8449 87.7539C88.3661 88.4697 89.2559 88.224 89.2559 88.224C89.2771 89.3007 89.3104 90.993 89.3619 92.3547H89.3649Z" fill="#CF9F90"/>
<path d="M82.6489 74.6032C82.4431 74.0118 81.7409 74.1665 81.7016 74.77C81.6774 75.1218 81.6834 75.7678 82.0557 75.9558C82.3463 76.1044 82.6126 75.877 82.6973 75.6071C82.7609 75.4099 82.767 74.9429 82.6489 74.6062V74.6032Z" fill="black"/>
<path d="M92.1596 74.7429C91.9719 74.2061 91.3363 74.3486 91.3 74.8945C91.2788 75.213 91.2849 75.7983 91.6208 75.9681C91.8842 76.1016 92.1263 75.8984 92.2019 75.6527C92.2595 75.4738 92.2655 75.0522 92.1596 74.7459V74.7429Z" fill="black"/>
<path d="M83.8312 71.9044C83.6345 71.407 82.8294 71.407 82.4057 71.4161C81.6006 71.4343 79.9723 71.589 79.5455 72.3957C79.3125 72.8324 80.3536 72.696 80.5473 72.6778C81.077 72.6262 81.6067 72.5625 82.1393 72.5261C82.6085 72.4928 83.126 72.5443 83.5588 72.3199C83.8221 72.1834 83.8827 72.0378 83.8312 71.9044Z" fill="#4B3E3A"/>
<path d="M94.2971 72.7624C93.7947 72.7473 92.5477 72.6017 92.0453 72.5986C91.5399 72.5986 90.989 72.6805 90.5138 72.4895C90.2233 72.3712 90.1507 72.2317 90.1961 72.0922C90.3716 71.5827 91.2372 71.5311 91.6882 71.5129C92.1512 71.4917 93.5072 71.6312 94.0641 71.7677C94.1579 72.0891 94.2305 72.4227 94.2941 72.7624H94.2971Z" fill="#4B3E3A"/>
<path d="M88.6362 78.4639C88.5515 77.8179 88.2821 77.0779 87.9825 76.5047C87.7858 76.1256 88.3487 75.7677 88.5454 76.1499C88.9086 76.8504 89.2143 77.6966 89.3112 78.4821C89.3959 79.1857 88.9661 79.6952 88.7392 80.323C88.5969 80.7234 87.9462 80.5717 88.0915 80.1653C88.2942 79.5982 88.718 79.0917 88.6332 78.4609L88.6362 78.4639Z" fill="#CF9F90"/>
<path d="M99.611 115.38C95.0134 117.691 89.8166 118.992 84.3231 118.992C79.9858 118.992 75.8362 118.182 72.0195 116.702C72.3888 111.388 72.6158 107.009 72.6158 107.009L76.0995 92.6729C76.0995 92.6729 81.1178 102.278 85.558 102.802C89.2687 103.239 90.7488 93.4856 90.7488 93.4856C90.7488 93.4856 96.1908 102.278 99.0329 113.141C99.1539 113.605 99.3567 114.385 99.611 115.377V115.38Z" fill="#1A2154"/>
<path d="M74.7373 107.564C74.8584 109.799 74.9189 113.545 74.8917 117.7C71.6016 116.741 68.5174 115.298 65.7177 113.451C63.5809 112.046 61.6105 110.406 59.8459 108.565C59.6794 104.48 60.5421 100.983 63.3357 99.0204C69.1197 94.9565 75.8693 92.7395 76.0963 92.6758C76.0327 92.9063 74.3802 100.883 74.7343 107.564H74.7373Z" fill="#ED1A60"/>
<path d="M89.6113 81.8735C89.5084 81.8037 89.3661 81.7582 89.1876 81.7582C88.1101 81.7522 87.0296 81.7582 85.9521 81.7491C85.1077 81.74 85.141 82.3041 85.6192 82.7924C86.2457 83.4354 87.3262 83.6264 88.2039 83.49C88.6851 83.4142 89.2632 83.1746 89.5992 82.8258C89.9079 82.5043 89.9139 82.0767 89.6143 81.8735H89.6113Z" fill="white"/>
<path d="M97.5464 75.974C97.1741 74.7457 96.8926 73.3142 95.8757 72.4711C95.6093 71.4612 95.2582 70.4755 94.8526 69.5475C94.0566 67.7338 92.9912 66.1871 92.0045 64.4978C91.3598 63.3939 90.5608 62.0048 89.1624 61.7743C87.189 61.4498 85.3064 62.7115 83.4964 63.2089C81.6048 63.7305 80.5212 64.7101 79.1501 66.0688C77.5581 67.6428 75.4999 68.8438 74.2166 70.7181C73.5598 71.6765 73.6415 72.4923 73.7807 73.3931C73.7172 73.7601 73.6748 74.1422 73.6203 74.5456C73.4115 76.0802 72.5882 77.4328 72.7365 79.0129C72.7728 79.4041 73.2208 79.5982 73.4932 79.3435C75.5756 79.1251 77.6095 75.695 78.5841 74.215C79.3741 73.017 80.1913 71.7584 80.7089 70.4179C81.1447 69.2806 81.2234 68.0735 81.4262 66.8877C86.1448 68.7347 92.2678 69.3625 93.4452 75.234C93.981 77.9181 94.0052 80.6385 93.8115 83.3499C93.7116 84.7813 93.757 86.225 93.6995 87.6625C93.6571 88.6543 93.4815 89.7461 93.6208 90.7226C93.651 90.9592 94.0021 90.9471 94.0869 90.753C96.9925 88.6725 97.6463 84.9967 98.1033 81.5908C98.3666 79.6195 98.1215 77.8574 97.5494 75.971L97.5464 75.974Z" fill="#4B3E3A"/>
<path d="M76.5881 80.1445C76.9603 80.6328 77.2842 81.5729 77.8986 82.0188C78.2769 82.4343 78.7491 82.8407 79.1879 82.8953C80.8223 83.1015 79.5996 79.5015 79.4906 78.8768C79.418 78.4491 79.3272 76.9691 78.8641 76.22C78.8641 76.1958 78.8671 76.1715 78.8641 76.1442C78.7067 75.3284 77.7594 74.8977 76.9725 75.1767C76.128 75.477 75.6952 76.1533 75.5651 76.9479C75.3895 78.0336 75.9222 79.2771 76.585 80.1475L76.5881 80.1445Z" fill="#EFB7A5"/>
<path d="M152.616 114.861C153.306 114.346 153.442 113.369 152.918 112.681L140.022 98.0293L137.521 99.8975L150.418 114.549C150.942 115.238 151.923 115.377 152.616 114.861Z" fill="#A6B3EA"/>
<path d="M119.888 103.388C130.451 106.582 141.571 100.671 144.728 90.1861C147.885 79.7016 141.88 68.6136 131.32 65.4201C120.757 62.2265 109.637 68.1375 106.48 78.6219C103.323 89.1064 109.328 100.194 119.888 103.388ZM120.642 100.886C111.471 98.1139 106.259 88.4877 109.001 79.3862C111.74 70.2847 121.398 65.1532 130.566 67.9252C139.737 70.6972 144.949 80.3234 142.207 89.4249C139.468 98.5264 129.81 103.658 120.642 100.886Z" fill="#A6B3EA"/>
</g>
</g>
<defs>
<clipPath id="clip0_1438_66919">
<rect fill="white" height="240.009" transform="translate(0 0.0458984)" width="320"/>
</clipPath>
<clipPath id="clip1_1438_66919">
<rect fill="white" height="240" transform="translate(0 0.0488281)" width="320"/>
</clipPath>
</defs>
</svg>